# xmcd
#
# Track frame offsets:
#	150
#	20405
#	36219
#	60873
#	74639
#	93433
#	112488
#	132354
#	155640
#	176575
#
# Disc length: 2619 seconds
# Revision: 0
# Processed by: cddbd v1.5.2PL0 Copyright (c) Steve Scherf et al.
# Submitted via: dBpowerAMP V12.0
#
DISCID=8d0a390a
DTITLE=Steve Earle - Copperhead Road Deluxe Edition [Disc 1]
DYEAR=2008
DGENRE=Country
TTITLE0=Copperhead Road
TTITLE1=Snake Oil
TTITLE2=Back to the Wall
TTITLE3=The Devil's Right Hand
TTITLE4=Johnny Come Lately
TTITLE5=Even When I'm Blue
TTITLE6=You Belong to Me
TTITLE7=Waiting on You
TTITLE8=Once You Love
TTITLE9=Nothing But a Child
EXTD=
EXTT0=
EXTT1=
EXTT2=
EXTT3=
EXTT4=
EXTT5=
EXTT6=
EXTT7=
EXTT8=
EXTT9=
PLAYORDER=
